<svg id="Layer_1" enable-background="new 0 0 512 512" height="512" viewBox="0 0 512 512" width="512" xmlns="http://www.w3.org/2000/svg"><g><path d="m298.739 352h-18c-4.418 0-8 3.582-8 8v14c0 1.105.895 2 2 2h24c1.105 0 2-.895 2-2v-20c0-1.105-.896-2-2-2z"/><path d="m344.739 408v-14c0-1.105-.895-2-2-2h-24c-1.105 0-2 .895-2 2v20c0 1.105.895 2 2 2h18c4.418 0 8-3.582 8-8z"/><path d="m208.739 352h-64c-4.418 0-8 3.582-8 8v149c0 1.657 1.343 3 3 3h74c1.657 0 3-1.343 3-3v-149c0-4.418-3.582-8-8-8zm-24 64c0-4.42 3.58-8 8-8s8 3.58 8 8v8c0 4.42-3.58 8-8 8s-8-3.58-8-8z"/><path d="m344.739 360c0-4.418-3.582-8-8-8h-18c-1.105 0-2 .895-2 2v20c0 1.105.895 2 2 2h24c1.105 0 2-.895 2-2z"/><path d="m280.739 416h18c1.105 0 2-.895 2-2v-20c0-1.105-.895-2-2-2h-24c-1.105 0-2 .895-2 2v14c0 4.418 3.581 8 8 8z"/><path d="m423.319 265.54c-100.698-83.384-110.656-91.621-156.32-129.42-15.262-12.615-37.279-12.598-52.52 0l-156.321 129.42c-3.418 2.834-3.863 7.879-1.06 11.26 4.904 5.921 6.311 8.634 10.52 9.03 2.13.19 4.2-.44 5.85-1.8 13.906-11.501-11.812 9.788 151.97-125.81 8.87-7.34 21.74-7.34 30.6 0 158.022 130.829 139.718 115.677 151.97 125.81 3.318 2.752 8.379 2.414 11.26-1.06 4.914-5.933 7.306-7.802 6.91-12.02-.199-2.13-1.22-4.05-2.859-5.41z"/><path d="m416.466 496h-15.728v-195.941c0-.934-.432-1.817-1.176-2.382-3.359-2.548-21.555-17.72-153.724-127.138-2.95-2.44-7.24-2.44-10.2 0-132.165 109.415-150.353 124.582-153.719 127.135-.747.566-1.18 1.454-1.18 2.391v195.935h-15.728c-4.262 0-7.982 3.218-8.255 7.471-.299 4.66 3.388 8.529 7.983 8.529h53c1.657 0 3-1.343 3-3v-149c0-13.255 10.745-24 24-24h64c13.255 0 24 10.745 24 24v149c0 1.657 1.343 3 3 3h181c4.595 0 8.282-3.869 7.983-8.529-.274-4.253-3.994-7.471-8.256-7.471zm-159.727-136c0-13.23 10.77-24 24-24h56c13.23 0 24 10.77 24 24v48c0 13.23-10.77 24-24 24h-56c-13.23 0-24-10.77-24-24z"/><path d="m448.739 0h-36c-25.95 0-48.55 14.61-60 36.03-11.45-21.42-34.05-36.03-60-36.03h-36c-4.418 0-8 3.582-8 8v20c0 37.555 30.445 68 68 68h9c1.657 0 3-1.343 3-3v-13.175c0-.89-.395-1.735-1.079-2.305l-28.041-23.37c-3.4-2.83-3.85-7.88-1.03-11.27 2.83-3.4 7.88-3.85 11.27-1.03 22.975 19.154 15.019 12.523 34.88 29.07v49.08h-31.726c-4.261 0-7.982 3.216-8.257 7.468-.301 4.659 3.389 8.532 7.983 8.532v15.809c0 .894.398 1.741 1.087 2.311l74 61.272c1.956 1.619 4.913.228 4.913-2.311v-77.081c4.594 0 8.284-3.873 7.983-8.532-.275-4.252-3.996-7.468-8.257-7.468h-31.726v-49.08c20.207-16.835 12.028-10.019 34.88-29.07 3.39-2.82 8.44-2.37 11.27 1.03 2.82 3.39 2.37 8.44-1.03 11.27l-28.041 23.37c-.684.57-1.079 1.414-1.079 2.305v13.175c0 1.657 1.343 3 3 3h9c37.555 0 68-30.445 68-68v-20c0-4.418-3.582-8-8-8z"/></g></svg>