<svg id="Capa_1" enable-background="new 0 0 512 512" height="50" viewBox="0 0 512 512" width="50" xmlns="http://www.w3.org/2000/svg"><g><path d="m256 22c-135.31 0-245 109.69-245 245 0 83.29 41.572 156.858 105.087 201.126l1-.522v-246.215c0-36.95 14.492-71.792 40.807-98.106s61.156-40.807 98.106-40.807 71.792 14.492 98.106 40.807 40.807 61.156 40.807 98.106v246.215l1 .522c63.515-44.268 105.087-117.837 105.087-201.126 0-135.31-109.69-245-245-245z" fill="#4f66d0"/><g><path d="m117.087 332h-22.587c-2.761 0-5-2.239-5-5v-87.437c0-14.017-11.471-25.825-25.485-25.558-13.584.258-24.515 11.349-24.515 24.995v93c0 27.614 22.386 50 50 50h27.587z" fill="#8bc727"/><path d="m447.985 214.005c-14.014-.266-25.485 11.542-25.485 25.558v87.437c0 2.761-2.239 5-5 5h-22.587v50h27.587c27.614 0 50-22.386 50-50v-93c0-13.646-10.931-24.737-24.515-24.995z" fill="#97d729"/></g><g><path d="m177.015 107.259c14.345-10.007 30.323-17.141 47.222-21.111l-20.827-82.374c-1.272-5.032-8.422-5.032-9.695 0l-22.835 90.313c2.941 3.826 5.07 8.301 6.135 13.172z" fill="#fed402"/><path d="m177.66 105.631c4.28-2.912 8.732-5.587 13.33-8.019l18.073-71.481-5.653-22.357c-1.272-5.032-8.422-5.032-9.695 0l-22.521 89.071c2.986 3.709 5.22 8.046 6.466 12.786z" fill="#fac600"/><path d="m334.985 107.259c1.065-4.871 3.195-9.347 6.135-13.172l-22.836-90.313c-1.272-5.032-8.422-5.032-9.695 0l-20.827 82.374c16.9 3.97 32.878 11.104 47.223 21.111z" fill="#fed402"/><path d="m307.451 91.335 16.486-65.205-5.653-22.356c-1.272-5.032-8.422-5.032-9.695 0l-20.587 81.424c6.677 1.578 13.173 3.635 19.449 6.137z" fill="#fac600"/></g><g><path d="m138.042 148.195c5.58-8.917 12.214-17.276 19.851-24.913 6.22-6.22 12.922-11.771 20.01-16.635-3.515-15.262-17.177-26.647-33.508-26.647-18.996 0-34.395 15.399-34.395 34.395 0 16.825 12.083 30.819 28.042 33.8z" fill="#97d729"/><path d="m144.395 131.301c2.787 0 5.411-.689 7.731-1.889 1.857-2.089 3.774-4.137 5.768-6.131.6-.6 1.209-1.187 1.817-1.774 1.01-2.166 1.591-4.57 1.591-7.113 0-9.322-7.584-16.906-16.906-16.906s-16.906 7.584-16.906 16.906c-.001 9.323 7.583 16.907 16.905 16.907z" fill="#fff"/><path d="m138 114.395c0-7.486 4.896-13.843 11.651-16.059-1.656-.543-3.42-.847-5.255-.847-9.322 0-16.906 7.584-16.906 16.906s7.584 16.906 16.906 16.906c1.836 0 3.599-.303 5.255-.847-6.755-2.216-11.651-8.572-11.651-16.059z" fill="#fbf0ff"/><path d="m354.106 123.282c7.637 7.637 14.271 15.996 19.851 24.913 15.959-2.982 28.042-16.976 28.042-33.8.001-18.996-15.398-34.395-34.394-34.395-16.331 0-29.993 11.385-33.508 26.648 7.088 4.863 13.789 10.414 20.009 16.634z" fill="#97d729"/><path d="m354.106 123.282c1.994 1.994 3.911 4.042 5.768 6.131 2.32 1.199 4.944 1.889 7.731 1.889 9.322 0 16.906-7.584 16.906-16.906s-7.584-16.906-16.906-16.906-16.906 7.584-16.906 16.906c0 2.543.581 4.948 1.591 7.113.608.587 1.217 1.173 1.816 1.773z" fill="#fff"/><path d="m361 114.395c0-7.526 4.946-13.913 11.755-16.097-1.625-.521-3.354-.809-5.151-.809-9.322 0-16.906 7.584-16.906 16.906s7.584 16.906 16.906 16.906c1.796 0 3.525-.287 5.151-.809-6.809-2.184-11.755-8.571-11.755-16.097z" fill="#fbf0ff"/></g><g><path d="m256 81.476c-76.953 0-139.913 62.961-139.913 139.913v246.737c39.669 27.648 87.893 43.874 139.913 43.874s100.244-16.226 139.913-43.874v-246.737c0-76.953-62.961-139.913-139.913-139.913z" fill="#8bc727"/></g><g><path d="m168.174 221.389c0-68.058 49.251-125.162 113.87-137.455-8.445-1.607-17.149-2.458-26.043-2.458-76.952 0-139.913 62.961-139.913 139.913v246.737c16.065 11.196 33.533 20.518 52.087 27.649v-274.386z" fill="#81b823"/></g><g fill="#97d729"><path d="m229.658 266.058c-5.853 3.366-12.628 5.303-19.851 5.303-22.031 0-39.955-17.923-39.955-39.954s17.924-39.955 39.955-39.955c.6 0 1.196.019 1.79.045l-16.721-22.407c-2.475-3.317-6.739-4.769-10.724-3.653-28.838 8.071-50.152 34.645-50.152 65.969 0 23.873 12.385 44.982 31.039 57.254 4.431-2.361 9.404-3.645 14.494-3.645h60.005c-5.646-4.518-9.403-11.298-9.88-18.957z"/><path d="m327.848 165.437c-3.985-1.115-8.249.336-10.724 3.653l-16.721 22.407c.594-.026 1.19-.045 1.79-.045 22.031 0 39.955 17.924 39.955 39.955s-17.924 39.954-39.955 39.954c-7.223 0-13.998-1.936-19.851-5.303-.477 7.659-4.234 14.44-9.88 18.958h60.005c5.089 0 10.063 1.284 14.493 3.645 18.654-12.273 31.04-33.383 31.04-57.255 0-31.324-21.314-57.898-50.152-65.969z"/></g><g><g><g><circle cx="209.806" cy="231.406" fill="#fff" r="40.955"/></g><path d="m189.091 231.406c0-19.125 13.111-35.187 30.835-39.692-3.237-.823-6.627-1.263-10.12-1.263-22.619 0-40.954 18.336-40.954 40.954 0 22.619 18.336 40.955 40.954 40.955 3.493 0 6.883-.44 10.12-1.263-17.724-4.505-30.835-20.566-30.835-39.691z" fill="#fbf0ff"/><g><circle cx="209.806" cy="231.406" fill="#5d3f9a" r="19.112"/></g><path d="m205.776 231.406c0-7.861 4.773-14.624 11.571-17.555-2.315-.999-4.864-1.557-7.541-1.557-10.538 0-19.112 8.574-19.112 19.112 0 10.539 8.574 19.112 19.112 19.112 2.677 0 5.225-.558 7.541-1.557-6.798-2.931-11.571-9.694-11.571-17.555z" fill="#4b3087"/><g><circle cx="302.194" cy="231.406" fill="#fff" r="40.955"/></g><path d="m282.091 231.406c0-19.015 12.961-34.999 30.529-39.611-3.329-.874-6.822-1.344-10.426-1.344-22.619 0-40.955 18.336-40.955 40.954 0 2.105.16 4.173.466 6.193 12.393 2.625 21.694 13.625 21.694 26.801 0 1.113-.074 2.208-.203 3.286 5.679 2.98 12.139 4.675 18.997 4.675 3.604 0 7.097-.469 10.426-1.343-17.568-4.612-30.528-20.596-30.528-39.611z" fill="#fbf0ff"/><g><path d="m254.368 159.942-38.32-24.837c-2.809-1.82-6.038 1.629-4.036 4.312l41.584 55.725c1.2 1.608 3.609 1.608 4.809 0l41.584-55.725c2.002-2.682-1.227-6.132-4.036-4.312l-38.32 24.837c-.994.644-2.272.644-3.265 0z" fill="#97d729"/></g><g><circle cx="302.194" cy="231.406" fill="#5d3f9a" r="19.112"/></g><path d="m298.163 231.406c0-7.861 4.773-14.624 11.571-17.555-2.315-.999-4.864-1.557-7.541-1.557-10.538 0-19.112 8.574-19.112 19.112 0 10.539 8.574 19.112 19.112 19.112 2.677 0 5.225-.558 7.541-1.557-6.797-2.931-11.571-9.694-11.571-17.555z" fill="#4b3087"/></g><g><g><path d="m356.07 294.478h-200.141c-5.178 5.681-8.362 13.21-8.362 21.502v14.571c0 26.2 21.239 47.439 47.439 47.439h121.987c26.2 0 47.439-21.239 47.439-47.439v-14.571c.001-8.292-3.184-15.822-8.362-21.502z" fill="#fb2b3a"/></g><g><path d="m356.071 294.478c-5.846-6.414-14.241-10.463-23.603-10.463h-152.936c-9.362 0-17.757 4.049-23.603 10.463l22.185 38.031c1.491 2.556 5.185 2.556 6.676 0l13.992-23.987c.693-1.187 1.964-1.917 3.338-1.917h107.759c1.374 0 2.645.73 3.338 1.917l13.992 23.987c1.491 2.556 5.185 2.556 6.676 0z" fill="#fff"/></g><g><g><path d="m172.236 284.867c-6.385 1.502-12.03 4.919-16.306 9.611l22.185 38.031c1.491 2.556 5.185 2.556 6.676 0l7.618-13.06z" fill="#fbf0ff"/></g></g><g><path d="m195.007 377.99h121.987c2.06 0 4.075-.176 6.065-.43-3.627-20.514-21.501-36.109-43.056-36.109-8.868 0-17.108 2.656-24.002 7.19-6.895-4.533-15.134-7.19-24.002-7.19-21.555 0-39.429 15.595-43.056 36.109 1.989.254 4.004.43 6.064.43z" fill="#e41f2d"/></g></g><g><circle cx="256" cy="264.4" fill="#fed402" r="27.4"/></g><path d="m249.201 264.4c0-11.488 7.073-21.319 17.099-25.39-3.181-1.292-6.656-2.009-10.3-2.009-15.132 0-27.4 12.267-27.4 27.4 0 15.132 12.267 27.4 27.4 27.4 3.644 0 7.12-.718 10.3-2.009-10.026-4.074-17.099-13.904-17.099-25.392z" fill="#fac600"/></g><g><g><path d="m183.5 413.5c0-4.142-3.358-7.5-7.5-7.5h-17c-4.142 0-7.5 3.358-7.5 7.5s3.358 7.5 7.5 7.5h17c4.142 0 7.5-3.358 7.5-7.5z" fill="#97d729"/></g><g><path d="m242.5 413.5c0-4.142-3.358-7.5-7.5-7.5h-17c-4.142 0-7.5 3.358-7.5 7.5s3.358 7.5 7.5 7.5h17c4.142 0 7.5-3.358 7.5-7.5z" fill="#97d729"/></g><g><path d="m301.5 413.5c0-4.142-3.358-7.5-7.5-7.5h-17c-4.142 0-7.5 3.358-7.5 7.5s3.358 7.5 7.5 7.5h17c4.142 0 7.5-3.358 7.5-7.5z" fill="#97d729"/></g><g><path d="m360.5 413.5c0-4.142-3.358-7.5-7.5-7.5h-17c-4.142 0-7.5 3.358-7.5 7.5s3.358 7.5 7.5 7.5h17c4.142 0 7.5-3.358 7.5-7.5z" fill="#97d729"/></g></g><g><g><path d="m213 454.5c0-4.142-3.358-7.5-7.5-7.5h-17c-4.142 0-7.5 3.358-7.5 7.5s3.358 7.5 7.5 7.5h17c4.142 0 7.5-3.358 7.5-7.5z" fill="#97d729"/></g><g><path d="m272 454.5c0-4.142-3.358-7.5-7.5-7.5h-17c-4.142 0-7.5 3.358-7.5 7.5s3.358 7.5 7.5 7.5h17c4.142 0 7.5-3.358 7.5-7.5z" fill="#97d729"/></g><g><path d="m331 454.5c0-4.142-3.358-7.5-7.5-7.5h-17c-4.142 0-7.5 3.358-7.5 7.5s3.358 7.5 7.5 7.5h17c4.142 0 7.5-3.358 7.5-7.5z" fill="#97d729"/></g></g></g></svg>