<svg id="Capa_1" enable-background="new 0 0 512 512" height="40" viewBox="0 0 512 512" width="40" fill="white" xmlns="http://www.w3.org/2000/svg"><g><g><path d="m418.901 477.725-41.758-302.749c-.512-3.711-3.684-6.476-7.43-6.476h-36.213v-80.998c0-23.615-14.313-43.941-34.716-52.782-8.84-20.405-29.168-34.72-52.784-34.72-31.706 0-57.5 25.794-57.5 57.5v111h-26.665c-4.143 0-7.5 3.357-7.5 7.5s3.357 7.5 7.5 7.5h26.665v16.29c-8.729 3.096-15 11.433-15 21.21 0 12.406 10.094 22.5 22.5 22.5s22.5-10.094 22.5-22.5c0-9.777-6.271-18.114-15-21.21v-16.29h85v16.29c-8.729 3.096-15 11.433-15 21.21 0 12.406 10.094 22.5 22.5 22.5s22.5-10.094 22.5-22.5c0-9.777-6.271-18.114-15-21.21v-16.29h59.677l40.864 296.273c.599 4.342-.709 8.726-3.588 12.029s-7.043 5.197-11.425 5.197h-266.058c-4.347 0-8.343-1.777-11.254-5.005s-4.268-7.387-3.82-11.71l31.397-303.514c.427-4.12-2.568-7.806-6.688-8.231-4.124-.425-7.805 2.569-8.231 6.688l-31.398 303.515c-.878 8.478 1.894 16.97 7.602 23.299s13.869 9.959 22.392 9.959h266.059c8.719 0 17.005-3.77 22.733-10.343 5.727-6.572 8.33-15.296 7.139-23.932zm-222.901-249.225c-4.136 0-7.5-3.364-7.5-7.5s3.364-7.5 7.5-7.5 7.5 3.364 7.5 7.5-3.364 7.5-7.5 7.5zm100 0c-4.136 0-7.5-3.364-7.5-7.5s3.364-7.5 7.5-7.5 7.5 3.364 7.5 7.5-3.364 7.5-7.5 7.5zm-92.5-171c0-23.435 19.065-42.5 42.5-42.5 12.983 0 24.619 5.858 32.42 15.063-.803-.034-1.609-.062-2.42-.062-31.706 0-57.5 25.794-57.5 57.5v80.999h-15zm30 111v-80.998c0-23.435 19.065-42.5 42.5-42.5 3.818 0 7.516.514 11.038 1.462.948 3.521 1.462 7.219 1.462 11.036v111zm69.939-113.417c9.204 7.802 15.061 19.437 15.061 32.419v80.998h-15v-111c0-.811-.028-1.614-.061-2.417z"/></g></g></svg>