<svg height="50" viewBox="0 0 512 512" width="50" xmlns="http://www.w3.org/2000/svg"><g id="filled_outline" data-name="filled outline"><path d="m446.052 315.9a104.048 104.048 0 0 0 -94.337-83.617 104.007 104.007 0 0 0 -206.488-8.283c-.424 2.742-1.022-2.808-1.227 0-8 0-5.212 8-8 8a104 104 0 0 0 -104 104q0 4.254.341 8.422a63.993 63.993 0 0 0 76.665 92.033 104.223 104.223 0 0 0 82.994-12.805 104.1 104.1 0 0 0 104 4.627 104.177 104.177 0 0 0 93.19 1.417 64 64 0 1 0 56.862-113.794z" fill="#b9b9b9"/><path d="m272 80v-24h-32v24l-1.467 1.467a22.3 22.3 0 0 0 -6.533 15.772v38.761a8 8 0 0 0 8 8h32a8 8 0 0 0 8-8v-38.761a22.3 22.3 0 0 0 -6.533-15.772z" fill="#bce1ff"/><path d="m207.973 119.748-13.684-19.716-26.289 18.246 13.684 19.716-.368 2.042a22.3 22.3 0 0 0 3.626 16.682l22.1 31.843a8 8 0 0 0 11.133 2.01l26.289-18.246a8 8 0 0 0 2.01-11.133l-22.1-31.843a22.3 22.3 0 0 0 -14.361-9.232z" fill="#04957c"/><path d="m280 104v16h-24a8 8 0 0 1 0-16z" fill="#bce1ff"/><path d="m280 104v16h-24a8 8 0 0 1 0-16z" fill="#8ed2ff"/><path d="m325.33 199.568 22.854 7.326 9.768-30.473-22.852-7.321-.949-1.845a22.31 22.31 0 0 0 -13.025-11.036l-36.911-11.831a8 8 0 0 0 -10.06 5.176l-9.768 30.473a8 8 0 0 0 5.176 10.06l36.911 11.831a22.3 22.3 0 0 0 17.014-1.407z" fill="#01afea"/><path d="m307.36 177.01-7.33 22.85-15.23-4.88 7.32-22.86a8 8 0 0 1 15.24 4.89z" fill="#01afea"/><path d="m307.36 177.01-7.33 22.85-15.23-4.88 7.32-22.86a8 8 0 0 1 15.24 4.89z" fill="#0198cb"/><path d="m365.33 439.568 22.854 7.326 9.768-30.473-22.852-7.321-.949-1.845a22.31 22.31 0 0 0 -13.025-11.036l-36.911-11.831a8 8 0 0 0 -10.06 5.176l-9.768 30.473a8 8 0 0 0 5.176 10.06l36.911 11.831a22.3 22.3 0 0 0 17.014-1.407z" fill="#04957c"/><path d="m347.36 417.01-7.33 22.85-15.23-4.88 7.32-22.86a8 8 0 0 1 15.24 4.89z" fill="#04957c"/><path d="m347.36 417.01-7.33 22.85-15.23-4.88 7.32-22.86a8 8 0 0 1 15.24 4.89z" fill="#03816b"/><path d="m237.35 148.05-19.71 13.68a8 8 0 1 1 -9.13-13.14l19.72-13.69z" fill="#04957c"/><path d="m237.35 148.05-19.71 13.68a8 8 0 1 1 -9.13-13.14l19.72-13.69z" fill="#03816b"/><path d="m63.973 375.748-13.684-19.716-26.289 18.246 13.684 19.716-.368 2.042a22.3 22.3 0 0 0 3.626 16.682l22.1 31.843a8 8 0 0 0 11.133 2.01l26.289-18.246a8 8 0 0 0 2.01-11.133l-22.1-31.843a22.3 22.3 0 0 0 -14.361-9.232z" fill="#01afea"/><path d="m93.35 404.05-19.71 13.68a8 8 0 1 1 -9.13-13.14l19.72-13.69z" fill="#01afea"/><path d="m93.35 404.05-19.71 13.68a8 8 0 1 1 -9.13-13.14l19.72-13.69z" fill="#0198cb"/><path d="m78.687 282.339 6.867-23-30.662-9.156-6.867 23-1.825.986a22.305 22.305 0 0 0 -10.773 13.244l-11.09 37.14a8 8 0 0 0 5.376 9.954l30.662 9.156a8 8 0 0 0 9.955-5.376l11.09-37.14a22.307 22.307 0 0 0 -1.747-16.983z" fill="#bce1ff"/><path d="m79.49 307.62-4.58 15.34-23-6.87a8 8 0 1 1 4.58-15.33z" fill="#bce1ff"/><path d="m79.49 307.62-4.58 15.34-23-6.87a8 8 0 1 1 4.58-15.33z" fill="#8ed2ff"/><path d="m168 232h-40l-8-56h56z" fill="#fd9226"/><path d="m488 414.393-30.729 25.607-41.996-37.899 43.02-35.85z" fill="#fd9226"/><path d="m106.438 401.187-33.365-22.064 24.217-51.123 46.71 30.889z" fill="#04957c"/><path d="m400.538 262.843-31.099 25.157-41.439-38.507 43.538-35.219z" fill="#04957c"/><path d="m248 226v22h-32v-32h-14a10 10 0 0 0 -10 10v78a8 8 0 0 0 8 8h64a8 8 0 0 0 8-8v-88h-14a10 10 0 0 0 -10 10z" fill="#bce1ff"/><path d="m328.792 308.93-15.339 15.77-22.939-22.311 22.311-22.939-10.036-9.761a10 10 0 0 0 -14.141.2l-54.383 55.911a8 8 0 0 0 .157 11.313l45.878 44.622a8 8 0 0 0 11.313-.157l61.355-63.084-10.036-9.761a10 10 0 0 0 -14.14.197z" fill="#fbb540"/><path d="m182.633 295.771 12.114 13.356a8 8 0 0 1 -.551 11.3l-23.7 21.5a8 8 0 0 1 -11.3-.552l-12.114-13.356a25.284 25.284 0 0 1 -5.619-10.168 23.839 23.839 0 0 0 -14.325-15.8l-5.563-2.161-13.9-15.322a27.318 27.318 0 0 1 -7.049-19.681l-10.751-11.848 23.7-21.5 10.749 11.852a27.318 27.318 0 0 1 18.9 8.931l13.9 15.323 1.609 5.747a23.843 23.843 0 0 0 14.326 15.8 25.291 25.291 0 0 1 9.574 6.579z" fill="#01afea"/><path d="m415.786 366-10.5 14.66a8 8 0 0 1 -11.162 1.845l-26.015-18.635a8 8 0 0 1 -1.846-11.163l10.5-14.659a25.29 25.29 0 0 1 8.754-7.638 23.842 23.842 0 0 0 12.417-17.335l.938-5.894 12.046-16.818a27.315 27.315 0 0 1 17.75-11.043l9.317-13.007 26.015 18.633-9.317 13.008a27.312 27.312 0 0 1 -4.742 20.36l-12.041 16.817-5.278 2.786a23.839 23.839 0 0 0 -12.422 17.335 25.269 25.269 0 0 1 -4.414 10.748z" fill="#01afea"/><path d="m464 328h16v16h-16z" fill="#878787"/><g fill="#a45e14"><path d="m408 232h16v16h-16z"/><path d="m16 240h16v16h-16z"/><path d="m480 352h16v16h-16z"/><path d="m264 416h16v16h-16z"/></g><path d="m128 432h16v16h-16z" fill="#878787"/><path d="m296 224h16v16h-16z" fill="#878787"/><path d="m72 208h16v16h-16z" fill="#878787"/><path d="m16 440h16v16h-16z" fill="#a45e14"/><path d="m174.08 350.649 15.362 15.751-22.9 22.345-22.346-22.906-10.021 9.777a10 10 0 0 0 -.175 14.138l54.467 55.832a8 8 0 0 0 11.313.14l45.811-44.691a8 8 0 0 0 .14-11.313l-61.45-62.99-10.021 9.776a10 10 0 0 0 -.18 14.141z" fill="#bce1ff"/><path d="m326.008 208.187 19.734 6.326a8 8 0 0 0 10.06-5.177l9.768-30.474a8 8 0 0 0 -5.176-10.059l-19.734-6.325a30.086 30.086 0 0 0 -17.1-13.881l-35.62-11.419c.029-.39.06-.78.06-1.178v-38.761a30.089 30.089 0 0 0 -8-20.516v-20.723a8 8 0 0 0 -8-8h-32a8 8 0 0 0 -8 8v20.723a30.092 30.092 0 0 0 -8 20.516v20.395a30.106 30.106 0 0 0 -11.323-5.139l-11.816-17.024a8 8 0 0 0 -11.134-2.011l-26.289 18.246a8 8 0 0 0 -2.01 11.134l11.816 17.023a30.085 30.085 0 0 0 5.126 21.416l22.1 31.843a16.014 16.014 0 0 0 22.267 4.022l26.288-18.244a16 16 0 0 0 4.023-22.268l-3.214-4.632h15.134l-8.2 25.591a16.018 16.018 0 0 0 10.352 20.12l36.911 11.832a30.077 30.077 0 0 0 21.977-1.356zm-112.393-24.187-22.1-31.843a14.209 14.209 0 0 1 -2.326-10.7l.369-2.042a8 8 0 0 0 -1.3-5.982l-9.123-13.144 13.144-9.123 9.121 13.144a8 8 0 0 0 5.149 3.31l2.042.369a14.214 14.214 0 0 1 9.21 5.922l3.855 5.554-13.144 9.123a8 8 0 1 0 9.123 13.144l13.144-9.123 9.123 13.144zm58.385-80h-16a8 8 0 0 0 0 16h16v16h-32v-38.761a14.211 14.211 0 0 1 4.19-10.115l1.467-1.467a8 8 0 0 0 2.343-5.657v-16h16v16a8 8 0 0 0 2.343 5.657l1.467 1.466a14.215 14.215 0 0 1 4.19 10.116zm36.913 90.307-6.438-2.064 4.884-15.236a8 8 0 1 0 -15.236-4.885l-4.884 15.237-15.239-4.883 9.77-30.476 36.911 11.831a14.215 14.215 0 0 1 8.354 7.078l.949 1.845a8 8 0 0 0 4.671 3.958l15.237 4.884-4.884 15.236-15.237-4.884a8 8 0 0 0 -6.1.505l-1.844.948a14.2 14.2 0 0 1 -10.914.906z"/><path d="m400.394 408.8-19.734-6.325a30.086 30.086 0 0 0 -17.1-13.881l-36.91-11.831a16 16 0 0 0 -20.121 10.352l-9.767 30.473a16.018 16.018 0 0 0 10.352 20.12l36.911 11.832a30.082 30.082 0 0 0 21.979-1.356l19.734 6.326a8 8 0 0 0 10.06-5.177l9.768-30.474a8 8 0 0 0 -5.176-10.059zm-17.386 28.031-15.237-4.884a8 8 0 0 0 -6.1.5l-1.844.948a14.207 14.207 0 0 1 -10.912.9l-6.438-2.064 4.884-15.236a8 8 0 1 0 -15.236-4.885l-4.884 15.237-15.241-4.871 9.77-30.476 36.911 11.831a14.215 14.215 0 0 1 8.354 7.078l.949 1.845a8 8 0 0 0 4.671 3.958l15.237 4.884z"/><path d="m105.025 434.9a16 16 0 0 0 4.023-22.268l-2.395-3.451a7.983 7.983 0 0 0 5.769-2.677l13.132-14.79a17.91 17.91 0 0 0 2.714 3.629l54.467 55.831a16.019 16.019 0 0 0 22.626.281l45.811-44.691a16 16 0 0 0 .281-22.625l-54.263-55.626 2.38-2.159a15.885 15.885 0 0 0 4.264-6.354h24.912l-.216.223a16.018 16.018 0 0 0 .315 22.625l45.879 44.623a16.021 16.021 0 0 0 22.625-.315l61.351-63.084a8 8 0 0 0 -.157-11.313l-10.032-9.759a18.018 18.018 0 0 0 -25.453.353l-9.758 10.035-11.469-11.156 16.733-17.2a8 8 0 0 0 -.157-11.312l-10.036-9.762a17.876 17.876 0 0 0 -12.543-5.1c-.085 0-.172 0-.258 0a17.882 17.882 0 0 0 -12.653 5.449l-2.913 3v-51.307a8 8 0 0 0 -8-8h-14.004a18.021 18.021 0 0 0 -18 18v14h-16v-24a8 8 0 0 0 -8-8h-14a18.021 18.021 0 0 0 -18 18v60.241a33.378 33.378 0 0 0 -8.043-4.509 15.915 15.915 0 0 1 -9.519-10.5l-1.609-5.747a8 8 0 0 0 -1.778-3.217l-13.9-15.324a35.366 35.366 0 0 0 -8.637-6.944h27.486a8 8 0 0 0 7.919-6.868l8-56a8 8 0 0 0 -7.919-9.132h-56a8 8 0 0 0 -7.919 9.132l6.935 48.549a8 8 0 0 0 -10.813-.066l-23.7 21.5a7.949 7.949 0 0 0 -2.045 2.956l-25.274-7.548a8 8 0 0 0 -9.954 5.376l-5.93 19.855a30.085 30.085 0 0 0 -13.536 17.369l-11.093 37.141a16.019 16.019 0 0 0 10.753 19.91l20.669 6.171a7.976 7.976 0 0 0 -2.366 1.115l-26.289 18.246a8 8 0 0 0 -2.01 11.134l11.816 17.023a30.085 30.085 0 0 0 5.126 21.416l22.1 31.843a16.014 16.014 0 0 0 22.267 4.022zm189.358-159.437a1.965 1.965 0 0 1 1.407-.606h.029a1.958 1.958 0 0 1 1.392.566l4.3 4.184-16.734 17.2a8 8 0 0 0 .158 11.313l22.939 22.311a8 8 0 0 0 11.312-.158l15.339-15.77a2 2 0 0 1 2.828-.039l4.3 4.182-55.774 57.354-45.879-44.622zm-94.383-49.463a2 2 0 0 1 2-2h6v24a8 8 0 0 0 8 8h32a8 8 0 0 0 8-8v-22a2 2 0 0 1 2-2h6v59.753l-19.692 20.247h-43.433c-.071-.081-.13-.167-.2-.247l-.672-.741zm-94.935 164.689-21.8-14.417 17.3-36.512 31.324 20.715zm134.935 4.62-45.812 44.691-54.466-55.832a2 2 0 0 1 .034-2.829l4.295-4.19 16.759 17.179a8 8 0 0 0 5.628 2.413h.1a8 8 0 0 0 5.586-2.273l22.906-22.346a8 8 0 0 0 .14-11.312l-15.363-15.749a2 2 0 0 1 .035-2.828l4.295-4.19zm-73.224-211.309-5.714 40h-26.124l-5.714-40zm-53.75 58.841 5.375 5.926a8 8 0 0 0 5.535 2.616 19.2 19.2 0 0 1 13.364 6.317l12.629 13.925 1.1 3.929a32 32 0 0 0 19.133 21.094 17.376 17.376 0 0 1 6.543 4.5l8.916 9.831a16.086 16.086 0 0 0 2.725 3.955l-4.2 3.808a7.939 7.939 0 0 0 -5.461 2.266l-10.02 9.776a17.982 17.982 0 0 0 -3.651 5.107l-12.014-13.247a17.358 17.358 0 0 1 -3.841-6.952 31.99 31.99 0 0 0 -19.128-21.092l-3.8-1.478-12.631-13.922a19.184 19.184 0 0 1 -4.985-13.916 8 8 0 0 0 -2.065-5.763l-5.374-5.926zm-23.94 60.595a30.092 30.092 0 0 0 -1.8-21.949l4.36-14.587.986 1.086a35.039 35.039 0 0 0 9.116 21.958l13.9 15.324a8.009 8.009 0 0 0 3.029 2.083l5.563 2.161a15.915 15.915 0 0 1 9.518 10.493 33.476 33.476 0 0 0 7.4 13.387l12.114 13.355a15.957 15.957 0 0 0 11.859 5.244c.048 0 .1-.006.144-.006a18.07 18.07 0 0 0 3.084 4.248l9.776 10.023-11.458 11.174-15.239-15.621a7.973 7.973 0 0 0 -3.025-9.592l-46.71-30.89a8 8 0 0 0 -11.642 3.247l-20.875 44.047c-.17-.041-.338-.088-.509-.126l-11.816-17.024a8.011 8.011 0 0 0 -.512-.661l1.736.518a16 16 0 0 0 19.915-10.752zm-57.086 23.406 11.093-37.142a14.207 14.207 0 0 1 6.907-8.491l1.825-.985a8 8 0 0 0 3.866-4.751l4.578-15.331 15.331 4.578-4.578 15.33a8 8 0 0 0 .626 6.091l.986 1.825a14.212 14.212 0 0 1 1.121 10.891l-1.935 6.479-15.331-4.578a8 8 0 1 0 -4.578 15.33l15.331 4.578-4.578 15.334zm37.615 113.158-22.1-31.843a14.209 14.209 0 0 1 -2.326-10.7l.369-2.042a8 8 0 0 0 -1.3-5.982l-9.123-13.144 13.144-9.123 9.121 13.144a8 8 0 0 0 5.149 3.31l2.042.369a14.2 14.2 0 0 1 7.287 3.686c.069.073.144.142.217.213a14.467 14.467 0 0 1 1.706 2.023l3.855 5.554-13.144 9.123a8 8 0 1 0 9.123 13.144l13.144-9.123 9.121 13.144z"/><path d="m465.1 362.05a8 8 0 0 0 -11.93-1.945l-43.021 35.851a8 8 0 0 0 -.238 12.085l42 37.9a8 8 0 0 0 10.482.207l30.729-25.608a8 8 0 0 0 1.686-10.347zm-7.625 67.362-30-27.07 28.849-24.04 21.217 34.386z"/><path d="m363.993 293.86a8 8 0 0 0 10.477.36l31.1-25.157a8 8 0 0 0 1.838-10.321l-29-48.57a8 8 0 0 0 -11.9-2.118l-43.538 35.219a8 8 0 0 0 -.415 12.081zm5.407-67.56 20.714 34.692-20.31 16.43-29.6-27.5z"/><path d="m468.658 278.442-26.015-18.633a8 8 0 0 0 -11.162 1.845l-7.526 10.507a35.06 35.06 0 0 0 -19.541 13.544l-12.046 16.817a8 8 0 0 0 -1.4 3.4l-.939 5.894a15.914 15.914 0 0 1 -8.25 11.518 33.457 33.457 0 0 0 -11.524 10.055l-10.5 14.66a16.018 16.018 0 0 0 3.692 22.323l26.014 18.633a15.875 15.875 0 0 0 9.284 3 16.092 16.092 0 0 0 2.643-.218 15.892 15.892 0 0 0 10.4-6.469l10.5-14.66a33.442 33.442 0 0 0 5.81-14.146 15.915 15.915 0 0 1 8.251-11.518l5.278-2.786a7.994 7.994 0 0 0 2.77-2.417l12.045-16.816a35.051 35.051 0 0 0 6.534-22.861l7.524-10.514a8 8 0 0 0 -1.842-11.158zm-20.479 14.858a8 8 0 0 0 -1.388 5.963 19.188 19.188 0 0 1 -3.354 14.4l-10.946 15.283-3.608 1.9a31.991 31.991 0 0 0 -16.583 23.148 17.376 17.376 0 0 1 -3.017 7.346l-10.501 14.66-26.015-18.634 10.5-14.658a17.378 17.378 0 0 1 5.984-5.222 31.989 31.989 0 0 0 16.583-23.152l.642-4.029 10.945-15.282a19.193 19.193 0 0 1 12.552-7.809 8 8 0 0 0 5.2-3.234l4.658-6.5 13.008 9.317z"/><path d="m464 328h16v16h-16z"/><path d="m408 232h16v16h-16z"/><path d="m16 240h16v16h-16z"/><path d="m480 352h16v16h-16z"/><path d="m264 416h16v16h-16z"/><path d="m128 432h16v16h-16z"/><path d="m296 224h16v16h-16z"/><path d="m72 208h16v16h-16z"/><path d="m16 440h16v16h-16z"/></g></svg>