<?xml version="1.0" encoding="iso-8859-1"?>
<!-- Generator: Adobe Illustrator 19.0.0, SVG Export Plug-In . SVG Version: 6.00 Build 0)  -->
<svg version="1.1" id="Capa_1" xmlns="http://www.w3.org/2000/svg" xmlns:xlink="http://www.w3.org/1999/xlink" x="0px" y="0px"
	 viewBox="0 0 464.008 464.008" style="enable-background:new 0 0 464.008 464.008;" xml:space="preserve">
<path style="fill:#618C20;" d="M344.008,119.98h32l80,152l-32,56h-32v-32L344.008,119.98z"/>
<g>
	<path style="fill:#6A9923;" d="M136.008,327.98h-128v-80l64-64h64V327.98z"/>
	<path style="fill:#6A9923;" d="M168.008,103.98h16v16h-16V103.98z"/>
	<path style="fill:#6A9923;" d="M216.008,103.98h16v16h-16V103.98z"/>
	<path style="fill:#6A9923;" d="M264.008,103.98h16v16h-16V103.98z"/>
	<path style="fill:#6A9923;" d="M344.008,119.98h-208v176h256L344.008,119.98z"/>
</g>
<path style="fill:#DEDEDE;" d="M136.008,295.98h256v32h-256V295.98z"/>
<path style="fill:#6A9923;" d="M312.008,103.98h16v16h-16V103.98z"/>
<g>
	<path style="fill:#88B337;" d="M232.008,195.98c-4.418-0.004-7.997-3.589-7.993-8.007c0.001-1.578,0.469-3.12,1.345-4.433l24-36
		c1.377-2.335,3.941-3.708,6.648-3.56c2.679,0.005,5.177,1.35,6.656,3.584l12.448,18.816v-0.096c0.936-4.318,5.194-7.06,9.513-6.125
		c4.086,0.885,6.801,4.767,6.231,8.909L287.36,188.9c-0.772,4.35-4.924,7.251-9.275,6.479c-2.155-0.382-4.06-1.631-5.269-3.455
		l-16.808-25.48l-17.32,25.976C237.199,194.651,234.691,195.988,232.008,195.98L232.008,195.98z"/>
	<path style="fill:#88B337;" d="M240.008,255.98h-48c-4.418,0.001-8.001-3.581-8.001-7.999c0-1.581,0.468-3.126,1.345-4.441
		l13.96-20.936l-1.024,0.208c-4.36,0.713-8.473-2.244-9.186-6.605c-0.673-4.119,1.933-8.063,5.986-9.059
		c21.288-4.392,22.848-4,25.968-1.432c1.867,1.545,2.949,3.841,2.952,6.264c-0.003,1.58-0.47,3.124-1.344,4.44l-15.712,23.56h33.056
		c4.418,0,8,3.582,8,8S244.426,255.98,240.008,255.98z"/>
	<path style="fill:#88B337;" d="M282.672,266.98c-2.16,0.008-4.232-0.857-5.744-2.4l-10.664-11
		c-3.093-3.155-3.042-8.22,0.113-11.313c1.503-1.473,3.526-2.295,5.631-2.287h32.8l-15.848-22.952
		c-2.512-3.638-1.598-8.624,2.04-11.136c3.638-2.512,8.624-1.598,11.136,2.04l24.496,35.504c2.51,3.636,1.596,8.619-2.04,11.128
		c-1.347,0.93-2.947,1.424-4.584,1.416h-29.912c1.657,4.096-0.32,8.759-4.416,10.416
		C284.724,266.783,283.703,266.981,282.672,266.98z"/>
</g>
<g>
	<circle style="fill:#595959;" cx="72.008" cy="327.98" r="32"/>
	<circle style="fill:#595959;" cx="336.008" cy="327.98" r="32"/>
	<circle style="fill:#595959;" cx="272.008" cy="327.98" r="32"/>
</g>
<g>
	<path style="fill:#CFCFCF;" d="M64.008,319.98h16v16h-16V319.98z"/>
	<path style="fill:#CFCFCF;" d="M264.008,319.98h16v16h-16V319.98z"/>
	<path style="fill:#CFCFCF;" d="M328.008,319.98h16v16h-16V319.98z"/>
</g>
<path style="fill:#87CED9;" d="M88.008,183.98h-16l-64,64h80V183.98z"/>
<g>
	<path style="fill:#6A9923;" d="M401.272,167.98h-44.176l4.368,16h48.232L401.272,167.98z"/>
	<path style="fill:#6A9923;" d="M430.744,223.98h-58.376l4.368,16h62.432L430.744,223.98z"/>
	<path style="fill:#6A9923;" d="M389.824,287.98l2.184,8v8h45.712l9.144-16H389.824z"/>
</g>
<path style="fill:#618C20;" d="M136.008,183.98h16v112h-16V183.98z"/>
<path style="fill:#78C3CF;" d="M88.008,195.98l-52,52h52V195.98z"/>
<path style="fill:#CFCFCF;" d="M136.008,295.98h16v32h-16V295.98z"/>
<path d="M168.008,95.98v16h-32c-4.418,0-8,3.582-8,8v56h-56c-2.122,0-4.156,0.844-5.656,2.344l-64,64l-0.048,0.056
	c-0.627,0.659-1.138,1.419-1.512,2.248c-0.101,0.246-0.189,0.497-0.264,0.752c-0.239,0.684-0.385,1.397-0.432,2.12
	c0,0.176-0.096,0.32-0.096,0.488v79.992c0,4.418,3.582,8,8,8h24.808c4.396,21.65,25.51,35.636,47.16,31.24
	c15.741-3.196,28.044-15.499,31.24-31.24h121.6c4.341,21.584,25.358,35.562,46.942,31.221c9.73-1.957,18.38-7.473,24.258-15.469
	c13.041,17.739,37.992,21.547,55.731,8.506c7.996-5.879,13.512-14.529,15.469-24.258h48.8c2.864,0.006,5.512-1.52,6.944-4l32-56
	c1.358-2.374,1.409-5.276,0.136-7.696l-80-152c-1.375-2.64-4.103-4.298-7.08-4.304h-48v-16h-16v16h-32v-16h-16v16h-32v-16h-16v16
	h-32v-16L168.008,95.98z M144.008,127.98h193.888l8.728,32l34.904,128h-237.52L144.008,127.98z M421.704,223.98h-41.04l-10.904-40
	h30.248L421.704,223.98z M384.008,319.98h-8.8v-0.112c-0.498-2.334-1.207-4.618-2.12-6.824c-0.12-0.296-0.224-0.592-0.352-0.888
	c-0.896-2.073-1.967-4.067-3.2-5.96c-0.216-0.328-0.432-0.656-0.656-0.976s-0.52-0.8-0.8-1.216h16L384.008,319.98z M75.32,191.98
	h4.688v48H27.32L75.32,191.98z M16.008,255.98h72c4.418,0,8-3.582,8-8v-56h32v128h-16.8c0-0.144-0.096-0.272-0.128-0.416
	c-0.494-2.278-1.187-4.508-2.072-6.664c-0.312-0.8-0.736-1.472-1.096-2.216c-0.686-1.458-1.458-2.873-2.312-4.24
	c-0.512-0.8-1.096-1.528-1.656-2.28c-0.882-1.194-1.827-2.339-2.832-3.432c-0.672-0.712-1.368-1.376-2.088-2.04
	c-1.07-0.993-2.198-1.922-3.376-2.784c-0.8-0.584-1.6-1.144-2.4-1.672c-1.28-0.788-2.602-1.506-3.96-2.152
	c-0.848-0.408-1.672-0.8-2.552-1.192c-1.567-0.594-3.17-1.089-4.8-1.48c-0.8-0.208-1.552-0.48-2.36-0.64
	c-5.015-1.024-10.185-1.024-15.2,0c-0.8,0.16-1.6,0.432-2.36,0.64c-1.63,0.391-3.233,0.886-4.8,1.48
	c-0.88,0.352-1.704,0.8-2.552,1.192c-1.358,0.646-2.68,1.364-3.96,2.152c-0.8,0.528-1.6,1.088-2.4,1.672
	c-1.178,0.862-2.306,1.791-3.376,2.784c-0.72,0.664-1.416,1.328-2.088,2.04c-1.005,1.093-1.95,2.238-2.832,3.432
	c-0.56,0.752-1.144,1.48-1.656,2.28c-0.854,1.367-1.626,2.782-2.312,4.24c-0.36,0.744-0.8,1.448-1.096,2.216
	c-0.885,2.156-1.578,4.386-2.072,6.664c0,0.144-0.096,0.272-0.128,0.416H16.008L16.008,255.98z M72.008,351.98
	c-13.255,0-24-10.745-24-24s10.745-24,24-24s24,10.745,24,24S85.263,351.98,72.008,351.98z M144.008,303.98h96
	c-0.296,0.392-0.536,0.8-0.8,1.216s-0.44,0.648-0.656,0.976c-1.233,1.893-2.304,3.887-3.2,5.96
	c-0.128,0.296-0.232,0.592-0.352,0.888c-0.913,2.206-1.622,4.49-2.12,6.824v0.112h-88.872L144.008,303.98z M272.008,351.98
	c-13.255,0-24-10.745-24-24s10.745-24,24-24s24,10.745,24,24S285.263,351.98,272.008,351.98z M336.008,351.98
	c-13.255,0-24-10.745-24-24s10.745-24,24-24s24,10.745,24,24S349.263,351.98,336.008,351.98z M419.368,319.98h-19.36v-16h28.504
	L419.368,319.98z M437.648,287.98H398.12l-13.088-48h45.096l16.752,31.84L437.648,287.98z M371.208,127.98l21.056,40h-26.872
	l-10.904-40H371.208z"/>
<path d="M232.008,195.98c2.677,0.003,5.178-1.333,6.664-3.56l17.336-25.976l16.8,25.448c2.442,3.682,7.407,4.687,11.089,2.245
	c1.824-1.21,3.073-3.114,3.455-5.269l3.496-19.832c0.602-4.377-2.458-8.413-6.835-9.015c-4.142-0.57-8.023,2.146-8.909,6.231v0.096
	l-12.432-18.784c-1.48-2.236-3.982-3.582-6.664-3.584c-2.715-0.158-5.291,1.217-6.672,3.56l-24,36
	c-2.452,3.675-1.461,8.643,2.215,11.095C228.87,195.515,230.422,195.983,232.008,195.98z"/>
<path d="M192.008,255.98h48c4.418,0,8-3.582,8-8s-3.582-8-8-8h-33.056l15.712-23.56c0.874-1.316,1.341-2.86,1.344-4.44
	c-0.011-2.428-1.105-4.725-2.984-6.264c-3.12-2.544-4.68-2.96-25.968,1.432c-4.291,1.055-6.914,5.388-5.859,9.678
	c0.996,4.053,4.94,6.659,9.059,5.986l1.024-0.208l-13.96,20.936c-2.452,3.675-1.461,8.643,2.215,11.095
	C188.859,255.518,190.416,255.986,192.008,255.98z"/>
<path d="M288.92,217.028l15.888,22.952h-32.8c-4.418-0.017-8.014,3.551-8.031,7.969c-0.008,2.105,0.814,4.128,2.287,5.631l10.664,11
	c3.055,3.192,8.119,3.304,11.311,0.249c2.387-2.284,3.124-5.799,1.857-8.849h29.912c4.418,0,8-3.582,8-8
	c0-1.623-0.494-3.208-1.416-4.544l-24.496-35.504c-2.512-3.638-7.498-4.552-11.136-2.04
	C287.322,208.404,286.408,213.389,288.92,217.028L288.92,217.028z"/>
<path d="M64.008,319.98h16v16h-16V319.98z"/>
<path d="M264.008,319.98h16v16h-16V319.98z"/>
<path d="M328.008,319.98h16v16h-16V319.98z"/>
<g>
</g>
<g>
</g>
<g>
</g>
<g>
</g>
<g>
</g>
<g>
</g>
<g>
</g>
<g>
</g>
<g>
</g>
<g>
</g>
<g>
</g>
<g>
</g>
<g>
</g>
<g>
</g>
<g>
</g>
</svg>
