<?xml version="1.0" encoding="iso-8859-1"?>
<!-- Generator: Adobe Illustrator 19.0.0, SVG Export Plug-In . SVG Version: 6.00 Build 0)  -->
<svg version="1.1" id="Capa_1" xmlns="http://www.w3.org/2000/svg" xmlns:xlink="http://www.w3.org/1999/xlink" x="0px" y="0px"
	 viewBox="0 0 480.115 480.115" width="50px" style="enable-background:new 0 0 480.115 480.115;" xml:space="preserve">
<path style="fill:#4398D1;" d="M240.067,104.773l-77.664,144.736c-22.391,42.343-6.216,94.82,36.127,117.211
	c12.79,6.763,27.069,10.219,41.537,10.053c47.895,0.55,87.168-37.832,87.717-85.727c0.166-14.467-3.29-28.747-10.053-41.537
	L240.067,104.773z"/>
<g>
	<path style="fill:#88B337;" d="M472.067,241.285c0.095-34.171-7.395-67.937-21.928-98.864l-11.072,33.352l-30.024-7.136
		c39.643,93.363-3.906,201.185-97.268,240.828c-10.509,4.462-21.41,7.935-32.564,10.372l-22.824,29.072l25.44,20
		C391.803,448.785,471.784,353.087,472.067,241.285z"/>
	<path style="fill:#88B337;" d="M240.579,8.773c-74.581-0.194-144.692,35.539-188.36,96h31.848l4,29.112l1.104,0.632
		C147.523,51.44,262.175,31.396,345.253,89.749c12.627,8.869,24.087,19.292,34.109,31.024h36.704V89.629
		C372.154,38.384,308.064,8.855,240.579,8.773L240.579,8.773z"/>
	<path style="fill:#88B337;" d="M223.715,423.629c-101.142-8.69-176.089-97.726-167.399-198.867
		c1.167-13.584,3.842-26.996,7.975-39.989l-12.8-32l-30.688,12.272c-41.854,120.999,22.305,253.017,143.304,294.871
		c16.638,5.755,33.877,9.596,51.384,11.449l-19.104-28.88l27.328-18.08V423.629z"/>
</g>
<path style="fill:#3E8CC7;" d="M296.411,209.781c-31.736,83.032-81.144,119.104-125.512,133.784
	c30.038,37.942,85.148,44.35,123.09,14.311c32.684-25.876,42.614-71.196,23.742-108.367L296.411,209.781z"/>
<path style="fill:#6A9923;" d="M406.059,318.781c-24.398,51.479-71.221,88.791-126.848,101.08l-22.824,29.048l25.44,20
	c105.597-19.332,184.139-108.586,189.888-215.784L406.059,318.781z"/>
<path d="M322.611,338.245c17.099-28.267,17.924-63.483,2.168-92.52l-77.664-144.736c-2.442-3.893-7.577-5.068-11.469-2.627
	c-1.062,0.666-1.96,1.564-2.627,2.627l-77.664,144.736c-15.756,29.037-14.931,64.253,2.168,92.52
	c27.586,45.588,86.905,60.181,132.493,32.595C303.355,362.769,314.539,351.584,322.611,338.245z M240.067,368.773
	c-28.185,0.205-54.367-14.542-68.8-38.752c-14.175-23.447-14.857-52.652-1.792-76.736l70.592-131.592l70.616,131.592
	c13.065,24.084,12.383,53.289-1.792,76.736C294.454,354.239,268.26,368.987,240.067,368.773z"/>
<path d="M449.667,134.437c-3.268,0.193-6.088,2.358-7.12,5.464l-8.76,26.4l-22.888-5.44c-4.297-1.029-8.614,1.619-9.644,5.916
	c-0.398,1.661-0.254,3.407,0.412,4.98c9.302,21.817,14.063,45.299,13.992,69.016c-0.636,82.269-57.889,153.247-138.16,171.28
	c-1.81,0.402-3.427,1.417-4.576,2.872l-22.824,29.048c-2.733,3.471-2.135,8.501,1.337,11.234c0.002,0.002,0.005,0.004,0.007,0.006
	l25.44,20c1.41,1.109,3.151,1.712,4.944,1.712c0.484-0.002,0.966-0.053,1.44-0.152c130.296-23.749,216.669-148.627,192.919-278.923
	c-3.707-20.338-10.029-40.112-18.807-58.829C455.974,136.072,452.928,134.262,449.667,134.437L449.667,134.437z M283.899,460.357
	l-16.28-12.8l16.136-20.528c86.229-20.746,147.233-97.569,147.904-186.256c0.065-20.689-3.246-41.249-9.8-60.872l15.36,3.648
	c4.035,0.958,8.134-1.328,9.44-5.264l4.304-12.976c41.68,116.409-18.899,244.565-135.308,286.245
	c-10.355,3.708-20.969,6.647-31.756,8.795L283.899,460.357z"/>
<path d="M52.227,112.773h24.864l3.056,22.192c0.334,2.456,1.788,4.619,3.936,5.856l1.104,0.632c3.582,2.056,8.14,1.047,10.52-2.328
	c32.982-46.828,86.659-74.714,143.936-74.776h0.424c51.27,0.125,99.932,22.622,133.24,61.6c1.52,1.777,3.741,2.8,6.08,2.8h36.68
	c4.418,0,8-3.582,8-8V89.621c-0.003-1.913-0.686-3.762-1.928-5.216C376.664,31.456,310.391,0.926,240.595,0.773h-0.528
	C163.151,0.94,90.943,37.841,45.747,100.077c-2.594,3.577-1.796,8.579,1.781,11.173C48.894,112.241,50.539,112.774,52.227,112.773
	L52.227,112.773z M240.067,16.773h0.488c64.118,0.14,125.102,27.751,167.512,75.84v20.16h-25.072
	c-36.288-40.858-88.282-64.294-142.928-64.424h-0.432c-56.16,0.068-109.484,24.682-145.968,67.376l-1.656-12
	c-0.526-3.983-3.926-6.959-7.944-6.952H68.619C111.208,46.173,173.928,16.907,240.067,16.773z"/>
<path d="M224.403,415.661c-96.756-8.325-168.444-93.509-160.12-190.266c1.117-12.984,3.674-25.803,7.624-38.222
	c0.566-1.765,0.498-3.672-0.192-5.392l-12.8-32c-1.637-4.104-6.291-6.103-10.395-4.466c-0.002,0.001-0.003,0.001-0.005,0.002
	l-30.68,12.296c-2.153,0.863-3.829,2.612-4.6,4.8c-43.288,125.182,23.101,261.755,148.283,305.042
	c17.207,5.95,35.035,9.922,53.141,11.838c0.266,0.03,0.533,0.046,0.8,0.048c4.418,0.001,8.001-3.58,8.001-7.999
	c0-1.571-0.462-3.107-1.329-4.417l-14.656-22.152l20.656-13.664c2.238-1.482,3.584-3.988,3.584-6.672v-0.8
	C231.717,419.484,228.541,416.019,224.403,415.661L224.403,415.661z M189.715,446.901l9.264,14.008
	C77.443,438.31-2.761,321.466,19.838,199.93c1.815-9.762,4.278-19.393,7.372-28.829l19.816-7.928l8.8,21.944
	c-5.379,17.791-8.136,36.27-8.184,54.856c0.3,91.759,65.085,170.655,155.032,188.8l-10.704,7.08
	c-3.685,2.438-4.695,7.402-2.257,11.086c0,0.001,0.001,0.001,0.001,0.002V446.901z"/>
<g>
</g>
<g>
</g>
<g>
</g>
<g>
</g>
<g>
</g>
<g>
</g>
<g>
</g>
<g>
</g>
<g>
</g>
<g>
</g>
<g>
</g>
<g>
</g>
<g>
</g>
<g>
</g>
<g>
</g>
</svg>
