<?xml version="1.0" encoding="iso-8859-1"?>
<!-- Generator: Adobe Illustrator 19.0.0, SVG Export Plug-In . SVG Version: 6.00 Build 0)  -->
<svg version="1.1" id="Capa_1" xmlns="http://www.w3.org/2000/svg" xmlns:xlink="http://www.w3.org/1999/xlink" x="0px" y="0px"
	 viewBox="0 0 480 480" style="enable-background:new 0 0 480 480;" xml:space="preserve">
<path style="fill:#6A9923;" d="M263.805,224c0-21.6-10.4-41.6-28-52.8c19.2-24,15.2-59.2-8.8-78.4c-9.6-8-22.4-12-35.2-12
	c-0.8,0-1.6,0-2.4,0c8.8-29.6-8-60.8-37.6-69.6s-60.8,8-69.6,37.6c-3.2,10.4-3.2,21.6,0,32.8c-0.8,0-1.6,0-2.4,0
	c-31.2,0-56,24.8-56,56c0,12.8,4,24.8,12,35.2c-29.6,20-36.8,59.2-17.6,88.8c4.8,7.2,10.4,12.8,17.6,17.6
	c-19.2,24-15.2,59.2,8.8,78.4c9.6,8,22.4,12,35.2,12h112c31.2,0,56-24.8,56-56c0-12.8-4-24.8-12-35.2
	C253.405,265.6,263.805,245.6,263.805,224z"/>
<path style="fill:#618C20;" d="M197.405,186.4c-3.2-3.2-8-3.2-11.2,0l-42.4,40.8V112c0-4.8-3.2-8-8-8s-8,3.2-8,8v56.8l-36-36
	c-3.2-3.2-8-3.2-11.2,0s-3.2,8,0,11.2l48,48v109.6l-34.4-34.4c-3.2-3.2-8-3.2-11.2,0s-3.2,8,0,11.2l45.6,45.6v148c0,4.8,3.2,8,8,8
	s8-3.2,8-8V249.6l53.6-52C200.605,194.4,200.605,189.6,197.405,186.4L197.405,186.4z"/>
<path style="fill:#6A9923;" d="M471.805,224c0-21.6-10.4-41.6-28-52.8c19.2-24,15.2-59.2-8.8-78.4c-9.6-8-22.4-12-35.2-12
	c-0.8,0-1.6,0-2.4,0c8.8-29.6-8-60.8-37.6-69.6s-60.8,8-69.6,37.6c-3.2,10.4-3.2,21.6,0,32.8c-0.8,0-1.6,0-2.4,0
	c-31.2,0-56,24.8-56,56c0,12.8,4,24.8,12,35.2c-29.6,20-36.8,59.2-17.6,88.8c4.8,7.2,10.4,12.8,17.6,17.6
	c-19.2,24-15.2,59.2,8.8,78.4c9.6,8,22.4,12,35.2,12h112c31.2,0,56-24.8,56-56c0-12.8-4-24.8-12-35.2
	C461.405,265.6,471.805,245.6,471.805,224z"/>
<path style="fill:#618C20;" d="M405.405,186.4c-3.2-3.2-8-3.2-11.2,0l-42.4,42.4V112c0-4.8-3.2-8-8-8s-8,3.2-8,8v56.8l-36-36
	c-3.2-3.2-8-3.2-11.2,0s-3.2,8,0,11.2l48,48v109.6l-34.4-34.4c-3.2-3.2-8-3.2-11.2,0s-3.2,8,0,11.2l45.6,45.6v148c0,4.8,3.2,8,8,8
	s8-3.2,8-8V250.4c0.8,0,0.8-0.8,1.6-0.8l52-52C408.605,194.4,408.605,189.6,405.405,186.4z"/>
<path style="fill:#88B337;" d="M367.805,224c0-21.6-10.4-41.6-28-52.8c19.2-24,15.2-59.2-8.8-78.4c-9.6-8-22.4-12-35.2-12
	c-0.8,0-1.6,0-2.4,0c8.8-29.6-8-60.8-37.6-69.6s-60.8,8-69.6,37.6c-3.2,10.4-3.2,21.6,0,32.8c-0.8,0-1.6,0-2.4,0
	c-31.2,0-56,24.8-56,56c0,12.8,4,24.8,12,35.2c-29.6,20-36.8,59.2-17.6,88.8c4.8,7.2,10.4,12.8,17.6,17.6
	c-19.2,24-15.2,59.2,8.8,78.4c9.6,8,22.4,12,35.2,12h112c31.2,0,56-24.8,56-56c0-12.8-4-24.8-12-35.2
	C357.405,265.6,367.805,245.6,367.805,224z"/>
<path style="fill:#6A9923;" d="M301.405,186.4c-3.2-3.2-8-3.2-11.2,0l-42.4,42.4V112c0-4.8-3.2-8-8-8s-8,3.2-8,8v56.8l-36-36
	c-3.2-3.2-8-3.2-11.2,0s-3.2,8,0,11.2l48,48v109.6l-34.4-34.4c-3.2-3.2-8-3.2-11.2,0s-3.2,8,0,11.2l45.6,45.6v148c0,4.8,3.2,8,8,8
	c4.8,0,8-3.2,8-8V250.4c0.8,0,0.8-0.8,1.6-0.8l52-52C304.605,194.4,304.605,189.6,301.405,186.4z"/>
<path style="fill:#595959;" d="M375.805,480h-272c-4.8,0-8-3.2-8-8s3.2-8,8-8h272c4.8,0,8,3.2,8,8S380.605,480,375.805,480z"/>
<path d="M479.805,224c0-20.8-9.6-40.8-25.6-55.2c6.4-9.6,9.6-21.6,9.6-32.8c0-32.8-24-60-56.8-63.2c0-2.4,0.8-5.6,0.8-8.8
	c0-35.2-28.8-64-64-64c-20.8,0-40,9.6-52,27.2c-20-28.8-60-36-88.8-15.2c-5.6,4-11.2,8.8-15.2,15.2c-20.8-28.8-60-35.2-88.8-15.2
	c-19.2,13.6-29.6,36.8-26.4,60.8c-32.8,3.2-56.8,30.4-56.8,63.2c0,12,3.2,23.2,9.6,32.8c-30.4,25.6-33.6,71.2-8,101.6
	c2.4,3.2,4.8,5.6,8,8c-6.4,10.4-9.6,21.6-9.6,33.6c0,35.2,28.8,64,64,64h48v88h-24c-4.8,0-8,3.2-8,8s3.2,8,8,8h272c4.8,0,8-3.2,8-8
	s-3.2-8-8-8h-24v-88h48c35.2,0,64-28.8,64-64c0-12-3.2-23.2-9.6-32.8C470.205,264.8,479.805,244.8,479.805,224z M239.805,16
	c20,0,37.6,12,44.8,30.4c0.8,2.4,1.6,5.6,2.4,8.8l0,0c0.8,3.2,0.8,5.6,0.8,8.8c0,4.8-0.8,9.6-2.4,13.6c-0.8,2.4,0,4.8,1.6,7.2
	c1.6,2.4,4,3.2,6.4,3.2h2.4c26.4,0,48,21.6,48,48c0,11.2-4,21.6-10.4,29.6c-2.4,3.2-2.4,8.8,1.6,11.2c0,0,0,0,0.8,0
	c25.6,17.6,32.8,52,15.2,77.6c-4,6.4-9.6,11.2-15.2,15.2c-4,2.4-4.8,7.2-2.4,11.2c0,0,0,0,0,0.8c7.2,8.8,10.4,19.2,10.4,29.6
	c0,26.4-21.6,48-48,48h-48V250.4c0.8,0,0.8-0.8,1.6-0.8l52-52c3.2-3.2,3.2-8,0-11.2s-8-3.2-11.2,0l-42.4,42.4V112c0-4.8-3.2-8-8-8
	s-8,3.2-8,8v56.8l-36-36c-3.2-3.2-8-3.2-11.2,0s-3.2,8,0,11.2l48,48v109.6l-34.4-34.4c-3.2-3.2-8-3.2-11.2,0s-3.2,8,0,11.2
	l45.6,45.6v36h-48c-26.4,0-48-21.6-48-48c0-11.2,4-21.6,10.4-29.6c2.4-3.2,2.4-8.8-1.6-11.2c0,0,0,0-0.8,0
	c-25.6-17.6-32.8-52-15.2-77.6c4-6.4,9.6-11.2,15.2-15.2c4-2.4,4.8-7.2,2.4-11.2c0,0,0,0,0-0.8c-7.2-8.8-11.2-19.2-11.2-30.4
	c0-26.4,21.6-48,48-48h2.4c2.4,0,4.8-0.8,6.4-3.2c1.6-2.4,2.4-4.8,1.6-7.2c-1.6-4-2.4-8.8-2.4-13.6c0-3.2,0-5.6,0.8-8.8l0,0
	c0.8-3.2,1.6-5.6,2.4-8.8C202.205,28,219.805,16,239.805,16z M31.805,312c0-11.2,4-21.6,10.4-29.6c2.4-3.2,2.4-8.8-1.6-11.2
	c0,0,0,0-0.8,0c-25.6-17.6-32.8-52-15.2-77.6c4-6.4,9.6-11.2,15.2-15.2c4-2.4,4.8-7.2,2.4-11.2c0,0,0,0,0-0.8
	c-6.4-8.8-10.4-19.2-10.4-30.4c0-26.4,21.6-48,48-48h2.4c2.4,0,4.8-0.8,6.4-3.2c1.6-2.4,2.4-4.8,1.6-7.2c-7.2-25.6,7.2-52,32.8-60
	c22.4-6.4,46.4,4,56.8,25.6l0,0c-0.8,3.2-1.6,6.4-2.4,8.8c0,0.8,0,0.8,0,1.6c-0.8,5.6-0.8,12,0,17.6c-33.6,4.8-57.6,32-57.6,64.8
	c0,12,3.2,23.2,9.6,32.8c0,0,0,0-0.8,0l-37.6-37.6c-3.2-3.2-8-3.2-11.2,0s-3.2,8,0,11.2l37.6,37.6c-22.4,30.4-17.6,72.8,11.2,97.6
	c-3.2,4.8-5.6,10.4-7.2,16l-28.8-28.8c-3.2-3.2-8-3.2-11.2,0s-3.2,8,0,11.2l37.6,37.6c0,0.8,0,2.4,0,3.2c0,0.8,0,1.6,0,2.4
	c0,1.6,0.8,3.2,0.8,4s0.8,1.6,0.8,2.4c0,1.6,0.8,2.4,0.8,4c0,0.8,0.8,1.6,0.8,2.4c0.8,0.8,0.8,2.4,1.6,3.2c0,0.8,0.8,1.6,1.6,2.4
	s0.8,2.4,1.6,3.2c0.8,0.8,0.8,1.6,1.6,2.4s1.6,2.4,1.6,3.2c0.8,0.8,0.8,1.6,1.6,2.4s1.6,1.6,2.4,2.4c0.8,0.8,1.6,1.6,1.6,2.4
	c0.8,0.8,1.6,1.6,2.4,2.4c0.8,0.8,0.8,0.8,1.6,1.6h-60C53.405,360,31.805,338.4,31.805,312z M143.805,376h88v88h-88V376z
	 M335.805,464h-88v-88h88V464z M439.005,270.4c-4,2.4-4.8,7.2-2.4,11.2c0,0,0,0,0,0.8c7.2,8.8,10.4,19.2,10.4,29.6
	c0,26.4-21.6,48-48,48h-61.6c0.8,0,0.8-0.8,1.6-1.6c0.8-0.8,1.6-1.6,2.4-2.4s1.6-1.6,1.6-2.4c0.8-0.8,1.6-1.6,2.4-2.4
	s0.8-1.6,1.6-2.4c0.8-0.8,1.6-1.6,1.6-3.2c0.8-0.8,0.8-1.6,1.6-2.4c0.8-0.8,0.8-2.4,1.6-3.2c0.8-0.8,0.8-1.6,1.6-2.4
	c0.8-0.8,0.8-2.4,1.6-3.2c0-0.8,0.8-1.6,0.8-2.4c0.8-1.6,0.8-2.4,0.8-4c0-0.8,0.8-1.6,0.8-2.4c0-1.6,0.8-3.2,0.8-4s0-1.6,0-2.4
	c0-2.4,0-4.8,0-7.2c0-12-3.2-23.2-9.6-32.8c15.2-12.8,24-31.2,24.8-51.2l29.6-29.6c3.2-3.2,3.2-8,0-11.2s-8-3.2-11.2,0l-20.8,20.8
	c-3.2-14.4-12-28-23.2-37.6c6.4-9.6,9.6-21.6,9.6-33.6c0-32.8-24-60-56.8-63.2c0.8-5.6,0.8-12,0-17.6c0-0.8,0-0.8,0-1.6
	c-0.8-3.2-1.6-6.4-2.4-8.8l0,0c11.2-24,40-34.4,64-22.4c21.6,10.4,32,34.4,25.6,56.8c-0.8,2.4,0,4.8,1.6,7.2c1.6,2.4,4,3.2,6.4,3.2
	h2.4c26.4,0,48,21.6,48,48c0,11.2-4,21.6-10.4,29.6c-2.4,3.2-2.4,8.8,1.6,11.2c0,0,0,0,0.8,0c25.6,17.6,32.8,52,15.2,77.6
	C450.205,261.6,445.405,266.4,439.005,270.4z"/>
<g>
</g>
<g>
</g>
<g>
</g>
<g>
</g>
<g>
</g>
<g>
</g>
<g>
</g>
<g>
</g>
<g>
</g>
<g>
</g>
<g>
</g>
<g>
</g>
<g>
</g>
<g>
</g>
<g>
</g>
</svg>
